<?xml version="1.0" standalone="no"?>
<!DOCTYPE svg PUBLIC "-//W3C//DTD SVG 20010904//EN"
 "http://www.w3.org/TR/2001/REC-SVG-20010904/DTD/svg10.dtd">
<svg version="1.0" xmlns="http://www.w3.org/2000/svg"
 width="700.000000pt" height="700.000000pt" viewBox="0 0 700.000000 700.000000"
 preserveAspectRatio="xMidYMid meet">
<metadata>
Created by potrace 1.14, written by Peter Selinger 2001-2017
</metadata>
<g transform="translate(0.000000,700.000000) scale(0.100000,-0.100000)"
fill="#000000" stroke="none">
<path d="M3489 6702 c-2 -6 -60 -68 -128 -137 -105 -107 -136 -131 -199 -162
-64 -31 -87 -36 -157 -39 -125 -5 -165 9 -412 143 l-83 44 -76 -153 c-74 -150
-108 -205 -149 -241 -84 -74 -187 -117 -282 -117 -64 -1 -76 0 -238 30 -63 11
-123 20 -133 20 -20 0 -22 -9 -38 -140 -2 -19 -6 -46 -9 -60 -2 -14 -7 -47
-11 -75 -14 -111 -66 -210 -150 -284 -77 -67 -154 -97 -309 -116 -27 -4 -61
-8 -75 -11 -14 -2 -50 -6 -81 -10 l-55 -6 18 -102 c10 -55 20 -112 23 -126 21
-115 22 -134 11 -210 -16 -116 -88 -230 -186 -294 -30 -20 -109 -62 -175 -94
-66 -32 -126 -61 -132 -65 -10 -6 2 -36 43 -115 31 -59 60 -111 64 -117 5 -5
20 -39 35 -74 54 -129 41 -286 -33 -401 -16 -25 -85 -100 -154 -168 l-124
-123 100 -97 c55 -53 105 -101 111 -107 32 -29 86 -111 106 -162 27 -71 33
-189 14 -262 -13 -51 -28 -81 -127 -269 l-49 -92 152 -75 c204 -101 249 -137
308 -245 59 -110 65 -200 27 -395 -30 -157 -33 -177 -22 -180 6 -2 32 -6 57
-10 25 -3 57 -7 70 -10 13 -2 44 -6 69 -9 177 -23 249 -53 335 -139 57 -57 82
-98 113 -182 9 -26 17 -75 39 -235 2 -19 6 -46 8 -60 2 -14 4 -33 4 -44 1 -20
-2 -20 116 -2 29 5 119 20 125 21 17 4 100 17 125 19 51 4 155 -23 214 -55
103 -55 147 -106 221 -260 59 -120 94 -192 97 -198 1 -2 59 28 130 66 192 104
225 116 319 119 177 6 240 -29 461 -258 l83 -85 74 76 c41 42 93 96 116 120
99 104 216 153 353 147 72 -3 148 -23 182 -46 6 -4 67 -37 137 -73 93 -49 129
-63 135 -54 4 6 22 41 38 77 70 149 127 248 171 293 26 26 50 47 54 47 5 0 15
6 22 13 25 24 119 58 182 65 59 8 104 3 301 -33 17 -3 51 -8 76 -11 l46 -6 7
53 c5 30 10 72 12 94 2 22 6 49 9 60 2 11 7 43 10 70 25 188 159 340 337 379
35 8 124 22 200 32 86 11 135 21 133 28 -2 6 -6 25 -9 41 -2 17 -14 84 -26
150 -33 186 -27 262 27 369 50 100 113 151 286 237 87 43 162 81 168 84 8 6
-15 53 -122 252 -75 138 -77 292 -6 426 21 40 71 98 163 189 74 73 129 135
124 138 -32 20 -248 242 -272 280 -47 74 -69 159 -64 254 5 95 15 122 112 304
40 75 70 140 66 144 -4 4 -76 41 -160 83 -112 55 -168 89 -207 125 -86 83
-136 197 -136 315 0 48 47 340 57 357 8 13 1 14 -166 38 -36 5 -87 12 -115 15
-207 26 -368 189 -390 395 -3 30 -8 62 -10 70 -2 8 -7 38 -10 65 -3 28 -8 59
-10 70 -2 11 -4 31 -4 44 -1 22 -4 23 -48 18 -27 -3 -84 -13 -128 -21 -79 -16
-151 -27 -190 -30 -45 -4 -156 24 -211 53 -105 54 -148 105 -229 271 -31 63
-64 131 -73 150 -9 19 -18 36 -18 38 -1 3 -205 -102 -241 -124 -97 -60 -242
-79 -350 -45 -99 30 -134 55 -279 202 -72 72 -133 127 -135 121z"/>
</g>
</svg>
